<svg width="138" height="24" viewBox="0 0 138 24" xmlns="http://www.w3.org/2000/svg">
<path d="M48.3405 20.6788C48.3405 21.3601 48.0984 21.9562 47.5335 22.382C47.0493 22.8929 46.4037 23.0632 45.7581 23.0632C45.2739 23.0632 44.8704 22.9781 44.5475 22.7226C44.144 22.4671 43.9019 22.1265 43.6598 21.6155L42.3686 18.5498H33.0072L31.6353 21.6155C31.3932 22.1265 31.1511 22.4671 30.7476 22.7226C30.3441 22.9781 29.9405 23.0632 29.537 23.0632C28.8914 23.0632 28.2458 22.8078 27.7616 22.382C27.1967 21.871 26.9546 21.3601 26.9546 20.6788C26.9546 20.3382 27.0353 19.9124 27.1967 19.5717L34.8634 2.96586C35.1055 2.45491 35.509 2.02912 35.9932 1.68849C36.4774 1.43301 37.0423 1.2627 37.6072 1.2627C38.1721 1.2627 38.737 1.43301 39.2212 1.68849C39.7054 1.94396 40.109 2.36975 40.3511 2.96586L48.0984 19.4866C48.2598 19.9124 48.3405 20.253 48.3405 20.6788ZM34.7826 14.2919H40.5932L37.6879 7.47926L34.7826 14.2919Z"/>
<path d="M91.1119 22.2968C90.7084 21.871 90.4663 21.1897 90.4663 20.3382V3.98775C90.4663 3.13617 90.7084 2.54006 91.1119 2.02911C91.5154 1.60331 92.161 1.34784 92.9681 1.34784H98.8593C101.119 1.34784 103.056 1.77363 104.751 2.62522C106.365 3.4768 107.656 4.75418 108.543 6.37218C109.431 7.99019 109.835 9.94884 109.835 12.163C109.835 14.3771 109.431 16.3357 108.543 17.9537C107.656 19.5717 106.445 20.8491 104.831 21.7007C103.217 22.5523 101.2 22.9781 98.94 22.9781H93.0488C92.0803 22.9781 91.5154 22.8078 91.1119 22.2968ZM102.894 16.9318C103.863 15.9099 104.428 14.2919 104.428 12.163C104.428 10.034 103.943 8.50114 102.894 7.47924C101.926 6.45734 100.393 5.94639 98.3751 5.94639H95.7926V18.4647H98.3751C100.393 18.4647 101.926 17.9537 102.894 16.9318Z"/>
<path d="M138 20.6788C138 21.3601 137.758 21.9562 137.193 22.382C136.708 22.8929 136.063 23.0632 135.417 23.0632C134.933 23.0632 134.53 22.9781 134.207 22.7226C133.803 22.4671 133.561 22.1265 133.319 21.6155L132.028 18.5498H122.666L121.294 21.6155C121.052 22.1265 120.81 22.4671 120.407 22.7226C120.003 22.9781 119.6 23.0632 119.196 23.0632C118.551 23.0632 117.905 22.8078 117.421 22.382C116.856 21.871 116.614 21.3601 116.614 20.6788C116.614 20.3382 116.694 19.9124 116.856 19.5717L124.523 2.96586C124.765 2.45491 125.168 2.02912 125.652 1.68849C126.137 1.43301 126.701 1.2627 127.266 1.2627C127.831 1.2627 128.396 1.43301 128.88 1.68849C129.365 1.94396 129.768 2.36975 130.01 2.96586L137.677 19.5717C137.919 19.9124 138 20.253 138 20.6788ZM124.442 14.2919H130.252L127.347 7.47926L124.442 14.2919Z"/>
<path d="M75.3755 24C76.1018 24 76.8281 23.8297 77.4738 23.4891C79.1685 22.6375 80.2176 20.8491 80.2176 18.8905V2.19946C80.2176 1.00724 79.3299 0.0704956 78.2001 0.0704956C77.0702 0.0704956 76.1825 1.00724 76.1825 2.19946V18.8053C76.1825 19.3163 75.8597 19.5718 75.6983 19.6569C75.5369 19.7421 75.1334 19.8272 74.8106 19.5718L66.1755 12.0778C65.2878 11.3114 64.0773 11.4817 63.351 12.4185C62.6246 13.3552 62.7861 14.6326 63.6738 15.399L72.3895 22.8929C73.2773 23.5742 74.3264 24 75.3755 24Z" fill="url(#paint0_linear)"/>
<path d="M58.7509 24C59.8808 24 60.7685 23.0632 60.7685 21.871V5.26512C60.7685 4.75417 61.0913 4.4987 61.2527 4.41354C61.4141 4.32838 61.8176 4.24322 62.1404 4.4987L70.8562 11.9926C71.7439 12.7591 72.9544 12.5887 73.6807 11.652C74.4071 10.7153 74.2457 9.43788 73.3579 8.67146L64.6422 1.17752C63.1895 -0.0998543 61.172 -0.35533 59.4772 0.496254C57.7825 1.34784 56.7334 3.13616 56.7334 5.09481V21.7007C56.7334 23.0632 57.6211 24 58.7509 24Z" fill="url(#paint1_linear)"/>
<path d="M19.1263 20.5937C19.1263 21.2749 18.8842 21.9562 18.3193 22.4671C17.8351 22.9781 17.1895 23.3187 16.4631 23.3187C15.7368 23.3187 15.0105 22.9781 14.3649 22.2968L5.64912 12.7591V20.4233C5.64912 21.3601 5.40701 22.0413 4.8421 22.5523C4.35789 23.0632 3.63157 23.3187 2.74386 23.3187C1.85614 23.3187 1.21052 23.0632 0.726315 22.5523C0.242105 22.0413 0 21.3601 0 20.4233V3.05102C0 2.19944 0.242105 1.43301 0.726315 0.922065C1.21052 0.411114 1.93684 0.15564 2.74386 0.15564C3.63157 0.15564 4.35789 0.411114 4.8421 0.922065C5.32631 1.43301 5.64912 2.19944 5.64912 3.05102V10.2043L14.2842 1.00722C14.8491 0.411115 15.414 0.15564 16.1403 0.15564C16.7859 0.15564 17.4316 0.411114 17.9158 0.922065C18.4 1.43301 18.7228 2.11428 18.7228 2.79555C18.7228 3.47682 18.4 4.15808 17.8351 4.75419L11.5403 11.3114L18.4 18.7202C18.8842 19.2311 19.1263 19.9124 19.1263 20.5937Z"/>
<defs>
<linearGradient id="paint0_linear" x1="80.2653" y1="12.0563" x2="62.8985" y2="12.0563" gradientUnits="userSpaceOnUse">
<stop offset="0.1968" stop-color="#08D3A6"/>
<stop offset="1" stop-color="#15DFBF"/>
</linearGradient>
<linearGradient id="paint1_linear" x1="74.0933" y1="12.0562" x2="56.7265" y2="12.0562" gradientUnits="userSpaceOnUse">
<stop offset="0.1968" stop-color="#4475FF"/>
<stop offset="0.4119" stop-color="#4C8FFF"/>
<stop offset="0.8006" stop-color="#5AB9FF"/>
<stop offset="1" stop-color="#5FC9FF"/>
</linearGradient>
</defs>
</svg>
